<svg width="120" height="24" viewBox="0 0 120 24" fill="none" xmlns="http://www.w3.org/2000/svg">
<g clip-path="url(#clip0_2608_236123)">
<path d="M32.9434 4.92896H37.1015C41.0579 4.92896 44.1462 7.4944 44.1462 11.9991C44.1462 16.5037 41.0579 19.0692 37.1015 19.0692H32.9434V4.92896ZM37.0612 17.5138C39.8064 17.5138 42.3497 15.8977 42.3497 11.9991C42.3497 8.10041 39.8064 6.48438 37.0612 6.48438H34.6591V17.5138H37.0612Z" fill="black"/>
<path d="M54.7637 15.7966C54.4205 17.8772 52.624 19.2306 50.1008 19.2306C47.0932 19.2306 45.0747 16.8268 45.0747 13.9179C45.0747 11.0091 46.9318 8.72644 49.9192 8.72644C52.9066 8.72644 54.6627 10.7869 54.6627 13.4937C54.6627 13.7159 54.6425 14.0593 54.6224 14.2007H46.6693C46.7905 16.3016 48.1832 17.7964 50.1008 17.7964C51.756 17.7964 52.8057 17.0692 53.1286 15.7966H54.7637ZM46.7501 12.9079H53.0075C52.8864 11.1909 51.7359 10.1001 49.9192 10.1001C48.2034 10.1001 47.0529 11.1101 46.7501 12.9079Z" fill="black"/>
<path d="M54.8767 8.88818H56.5521L59.4386 17.0491L62.3251 8.88818H64.0207L60.2864 19.0691H58.611L54.8767 8.88818Z" fill="black"/>
<path d="M65.4841 16.8875V7.09039C65.4841 5.69657 66.231 4.92896 67.644 4.92896H74.3253V6.48438H67.9064C67.4623 6.48438 67.1999 6.74698 67.1999 7.19139V10.9891H72.9931V12.5445H67.1999V16.8067C67.1999 17.2512 67.4623 17.5138 67.9064 17.5138H74.5473V19.0692H67.644C66.231 19.0692 65.4841 18.3016 65.4841 16.8875Z" fill="black"/>
<path d="M82.7567 19.0711L79.8904 14.9704L77.0241 19.0711H75.3083L79.0023 13.718L75.6313 8.89014H77.4278L79.8904 12.4454L82.353 8.89014H84.1495L80.7786 13.718L84.4725 19.0711H82.7567Z" fill="black"/>
<path d="M85.5806 8.88804H87.1954V10.5647C87.8211 9.45365 89.1332 8.72644 90.5865 8.72644C93.7354 8.72644 95.4714 11.0091 95.4714 13.9785C95.4714 16.948 93.6951 19.2306 90.5462 19.2306C89.113 19.2306 87.801 18.5236 87.1954 17.4328V23.1899H85.5806V8.88804ZM93.796 13.9785C93.796 11.6757 92.4638 10.1809 90.425 10.1809C88.3863 10.1809 87.0541 11.6757 87.0541 13.9785C87.0541 16.2814 88.3863 17.7762 90.425 17.7762C92.4638 17.7762 93.796 16.2814 93.796 13.9785Z" fill="black"/>
<path d="M106.317 15.7966C105.974 17.8772 104.177 19.2306 101.654 19.2306C98.6467 19.2306 96.6282 16.8268 96.6282 13.9179C96.6282 11.0091 98.4852 8.72644 101.473 8.72644C104.46 8.72644 106.216 10.7869 106.216 13.4937C106.216 13.7159 106.196 14.0593 106.176 14.2007H98.2228C98.3439 16.3016 99.7367 17.7964 101.654 17.7964C103.31 17.7964 104.359 17.0692 104.682 15.7966H106.317ZM98.3036 12.9079H104.561C104.44 11.1909 103.289 10.1001 101.473 10.1001C99.7569 10.1001 98.6063 11.1101 98.3036 12.9079Z" fill="black"/>
<path d="M112.211 10.3222C110.152 10.3222 109.567 12.1806 109.567 14.5845V19.069H107.952V8.88799H109.567V10.9484C109.991 9.5546 110.838 8.88799 112.332 8.88799H113.523V10.3222H112.211ZM116.066 5.63574V8.88799H119.195V10.3222H116.066V15.8369C116.066 16.9681 116.712 17.6347 117.701 17.6347H119.195V19.069H117.641C115.703 19.069 114.452 17.8569 114.452 15.8773V5.63574H116.066Z" fill="black"/>
<path d="M10.7859 9.91831L15.5779 7.53265L15.1076 12.8777L16.4438 13.7927L17.0938 6.7105L15.812 5.83179L9.4375 8.99516L10.7859 9.91831Z" fill="black"/>
<path d="M14.1387 14.2938L9.33253 16.6714L9.81698 11.3365L8.4686 10.4133L7.83276 17.5036L9.11655 18.3824L15.4749 15.2089L14.1387 14.2938Z" fill="black"/>
<path d="M12.4635 24C5.85277 24 0.473389 18.6166 0.473389 11.999C0.473389 5.38137 5.85277 0 12.4635 0C19.0742 0 24.4535 5.38339 24.4535 11.999C24.4535 18.6146 19.0742 23.998 12.4635 23.998V24ZM12.4635 1.61603C6.74295 1.61603 2.08821 6.27422 2.08821 11.999C2.08821 17.7238 6.74295 22.382 12.4635 22.382C18.184 22.382 22.8387 17.7238 22.8387 11.999C22.8387 6.27422 18.186 1.61603 12.4635 1.61603Z" fill="black"/>
</g>
<defs>
<clipPath id="clip0_2608_236123">
<rect width="120" height="24" fill="white"/>
</clipPath>
</defs>
</svg>
