<svg id="Butterfly" xmlns="http://www.w3.org/2000/svg" viewBox="0 0 779.71 568.85"><defs><style>.cls-1{fill:#080d10;}.cls-2{fill:#02c4f5;}.cls-3{fill:#05a7e0;}.cls-4{fill:#68606a;}.cls-5{fill:#59595a;}</style></defs><g id="Logo"><path class="cls-1" d="M559.48,502.55c6.56-12.91,11.53-24.93,18.38-35.76,43.07-68.08,91-131.82,161.3-174.76,47.17-28.81,98-41.26,153.26-34.65,32.46,3.89,42.65,17.85,35,49.47-7.94,33-20.91,63.88-37.37,93.41-19.12,34.3-35.49,69.59-42.94,108.61C843.29,529,825,543.25,803.58,545c-7.37.59-14.78.8-25.05,1.33,14.1,10,25.74,18.52,37.64,26.65,18,12.27,23.17,28.46,17.54,49.41-13,48.42-27.41,96.28-51.8,140.48-8.79,15.92-19,30.78-32.5,43.17-19.87,18.25-42.34,23.84-67.45,12.38-44.51-20.32-80.72-49.25-100.77-95.8-8.42-19.54-16.32-39.49-27.89-57.6-10.69,16.51-16.83,16.67-27.4-.41-9.79,21.09-19.44,41.45-28.73,62-20.86,46-57.7,74.43-103,93.32-22.05,9.2-42,4-59.9-11-17.41-14.63-29.56-33.3-39.82-53.22-22.86-44.41-37.52-91.76-49.3-140.08-3.78-15.5,1.32-28.44,13.64-38.08,12.84-10,26.27-19.35,40.13-29.48-6.9-4-14.05-2.34-20.78-2.83-22.86-1.68-40.65-15-45.1-37.38C225.14,468,208,432.15,188.59,397.06c-17.17-31.09-30.43-63.72-37.48-98.69-4.11-20.38,5-35.1,25.41-38.89,65.8-12.19,125,4.78,179.29,42,50.45,34.55,89.37,80.08,123.38,130.24,14.75,21.75,27.36,44.78,41.15,69.57,3.75-14-4.16-23.2-7.55-33.23-6.24-18.47-13.44-36.6-19.77-55-2.19-6.37.25-11.92,7-14.07,7.38-2.35,12.24,1.39,14.83,8.11,6.65,17.25,13.15,34.57,19.62,51.9,1.32,3.53,2,7.38,6,9.83,10.14-18.4,15.88-38.55,23.42-57.95,3.12-8,7.19-15.55,17.34-11.36,9.37,3.86,7.31,11.7,4.42,19.33-9.07,24-17.95,48.05-26.91,72.08C557.63,493.85,555.13,496.68,559.48,502.55Zm-131.1-23h0c-.05-3.18-1.56-5.21-4.71-5.93-17.11-26-39-47.79-62.43-67.83-41.77-35.78-88.7-61.59-144.48-67.7-9.18-1-22.28-6-26.93,1.47-4.4,7,4.57,17.57,8.84,26,22.07,43.6,47.36,85.84,56.47,134.84,2.54,13.64,10.92,20.43,24.19,21.19,57.85,3.32,115.64,8,173.62,8.93,8.94,3.33,21.36-.61,25.74,12.29-1.4,9.85-7.58,13-16.84,12.55s-18.38-.25-27.57-.34c-26.89-5.77-54.2-4.33-81.4-4.6A13.41,13.41,0,0,0,348,551.6a273,273,0,0,0-71.56,41c-8.17,6.55-11.41,13.52-7.53,24,3.48,9.38,4.86,19.5,8,29,7.25,22.06,12.11,45,23.95,65.43l2.23,6.58a10.44,10.44,0,0,0,3.36,8.23c9.63,22.91,21,44.74,39.21,62.2,4.05,3.87,7.35,7.86,12.64.11q70.07-102.58,140.75-204.74c1.2-1.17,3.28-2.22,3.46-3.52,2.81-20.81,7.65-43.89-1-62C467.12,445.77,421.82,381,357.87,331.53c-50.56-39.14-106.55-61.36-172.12-49.91-7.29,1.27-14.23,2.14-11.71,11.72,2.25,8.53-1.53,21.15,15.45,20.23,32.77-1.78,64.25,5.56,94.49,17.89,68.53,27.93,120.31,76.39,164,134.64,3.88,5.17,7.58,10.6,2.49,17s-11.17,4-17.21,1.84a.88.88,0,0,0-.92-.89A5.29,5.29,0,0,0,428.38,479.55ZM579.12,579.63a8.67,8.67,0,0,0,.75,2.39Q650.7,684.74,721.51,787.48c4.31,6.27,8,5.93,12.91.94,20.32-20.66,34.14-45.14,43-72.57.86-.91,2.08-1.67,2.53-2.75C793.46,681,803.29,647.68,812,614c1.6-6.17,1.64-12.44-3.8-17.52C762.76,554,709.72,540.61,649.4,555c-14.55-2.45-29.5,3.67-43.89-2.06-4.1-16.2-2.3-18.75,14.44-20.76a44.05,44.05,0,0,0,6-1.58c58.46-.78,116.71-5.65,175.05-8.93,15.59-.88,21.83-7.86,25.28-25,5-24.85,14-48.24,24.66-71.12,12.38-26.58,28.43-51.29,39.43-78.6,3.63-9,1.56-11-7.64-10.48-19.78,1.06-39.32,3.19-58.22,9.36-75.73,24.74-131.1,75.43-176.59,138.68l-3.51,2.3a1,1,0,0,0-1.43.6c-5.35-.41-10.94.23-13.86-6.22-3-6.63.41-11.27,3.94-16,28.19-37.85,60.45-71.8,99.25-98.81,45.57-31.71,95.38-52.41,151.94-53.13,19-.24,21.18-2,23-20.41.59-5.88-.88-9.83-7.54-10.61-9.59-1.13-19.11-3.45-28.7-3.75C811.78,276.6,761.48,299.53,716.62,336c-53.48,43.43-91.87,98.89-126.77,157.64-15.38,25.88-14.57,52.34-14.3,79.8A6.84,6.84,0,0,0,579.12,579.63ZM697.46,797.24c1.45-3.6-1.28-5.63-2.84-7.89q-60.82-88.26-121.8-176.44c-2.49-3.59-4.24-8.51-10.64-4.51s-3.9,8.06-1.73,12.81c11.71,25.6,24.59,50.77,34.66,77,17.07,44.46,47.11,75.86,89.65,96.13C688.88,796.31,692.52,799.54,697.46,797.24Zm-317.12.34,2.48,2.46c35.74-15,67.92-35.81,86.81-70.62,18.59-34.28,33.18-70.74,49.35-106.32,2.13-4.67,6.14-10.17-1.32-14.06s-9.44,3.07-12.27,7.11q-29.64,42.35-58.9,84.93Q413.31,749.26,380.34,797.58Zm171.91-240.5h-.08c0-8.84.3-17.68-.1-26.49-.28-6.22-4-10-10.37-10.67-6.62-.68-11.91,1.28-13.12,8.6-3,17.94-2.19,36-.46,54,.64,6.63,5.65,11.6,13.38,10.38,7.06-1.12,11.07-5.34,10.81-13.08C552.06,572.22,552.25,564.65,552.25,557.08Z" transform="translate(-150.15 -255.57)"/><path class="cls-2" d="M642.94,487.43a1,1,0,0,1,1.43-.6l3.51-2.3c45.49-63.25,100.86-113.94,176.59-138.68,18.9-6.17,38.44-8.3,58.22-9.36,9.2-.5,11.27,1.48,7.64,10.48-11,27.31-27.05,52-39.43,78.6-10.67,22.88-19.65,46.27-24.66,71.12-3.45,17.1-9.69,24.08-25.28,25-58.34,3.28-116.59,8.15-175.05,8.93-3-2-9.36,2.41-9.52-4.59C616.1,513.47,631.1,492,642.94,487.43Z" transform="translate(-150.15 -255.57)"/><path class="cls-2" d="M453,530.53c-58-.91-115.76-5.61-173.61-8.93-13.27-.76-21.65-7.55-24.19-21.19-9.11-49-34.4-91.24-56.47-134.84-4.27-8.43-13.24-19-8.84-26,4.65-7.42,17.75-2.48,26.93-1.47,55.78,6.11,102.71,31.92,144.48,67.7,23.39,20,45.32,41.81,62.43,67.83-.57,3.68.74,5.87,4.71,5.93h0c0,2.68.75,4.66,4,4.5a.88.88,0,0,1,.92.89c.3,2.89,1.95,5.18,4.76,4.76,15.89-2.42,16,11.17,20.32,20.11,1.19,2.42.2,5.83,2.25,8.29C470.2,529.71,462,530.39,453,530.53Z" transform="translate(-150.15 -255.57)"/><path class="cls-2" d="M303.1,717.62,300.87,711c2.07-3.48,5.54-5.65,6.23-10.48,3.11-21.72,8-42.93,16.7-63.34,11.63-27.15,26-52.22,46.71-73.52,5.66-5.81,11.41-8.77,19.78-8.45,14.65.56,29.33-.08,44-.22,9.19.09,18.4-.09,27.57.34s15.44-2.7,16.84-12.55l5,0c17.79,0,17.4,0,17.93,17.18.25,8-2.15,15.59-2.57,23.44Q428.6,685.74,358.31,788.16c-5.29,7.75-8.59,3.76-12.64-.11-18.25-17.46-29.58-39.29-39.21-62.2C306.85,722.49,308,718.83,303.1,717.62Z" transform="translate(-150.15 -255.57)"/><path class="cls-2" d="M605.51,552.92c14.39,5.73,29.34-.39,43.89,2.06,6.29.19,12.72,1.33,18.83.4,24.9-3.79,42.95,4.13,57,26.06,17.89,27.82,33.52,56,42.25,88.32,4.14,15.31,1.65,31.88,9.93,46.09-8.89,27.43-22.71,51.91-43,72.57-4.9,5-8.6,5.33-12.91-.94Q650.8,684.67,579.87,582a8.67,8.67,0,0,1-.75-2.39c.23-9.62.58-19.23.66-28.85.05-5.6,1.16-10.36,8-10.29,4.92,0,11.57-2.64,12.36,6.19C600.39,549.9,602.44,551.93,605.51,552.92Z" transform="translate(-150.15 -255.57)"/><path class="cls-3" d="M605.51,552.92c-3.07-1-5.12-3-5.41-6.24-.79-8.83-7.44-6.14-12.36-6.19-6.8-.07-7.91,4.69-8,10.29-.08,9.62-.43,19.23-.66,28.85a6.84,6.84,0,0,1-3.57-6.23c-.27-27.46-1.08-53.92,14.3-79.8,34.9-58.75,73.29-114.21,126.77-157.64,44.86-36.43,95.16-59.36,154.37-57.49,9.59.3,19.11,2.62,28.7,3.75,6.66.78,8.13,4.73,7.54,10.61-1.84,18.42-4,20.17-23,20.41-56.56.72-106.37,21.42-151.94,53.13-38.8,27-71.06,61-99.25,98.81-3.53,4.76-6.95,9.4-3.94,16,2.92,6.45,8.51,5.81,13.86,6.22-11.84,4.59-26.84,26-26.55,38.56.16,7,6.53,2.62,9.52,4.59a44.05,44.05,0,0,1-6,1.58C603.21,534.17,601.41,536.72,605.51,552.92Z" transform="translate(-150.15 -255.57)"/><path class="cls-3" d="M499.06,583.42c.42-7.85,2.82-15.39,2.57-23.44-.53-17.2-.14-17.21-17.93-17.18l-5,0c-4.38-12.9-16.8-9-25.75-12.29,9.06-.14,17.25-.82,7.64-12.43-2-2.46-1.06-5.87-2.25-8.29-4.37-8.94-4.43-22.53-20.32-20.11-2.81.42-4.46-1.87-4.76-4.76,6,2.15,12.21,4.43,17.21-1.84s1.39-11.83-2.49-17c-43.69-58.25-95.47-106.71-164-134.64-30.24-12.33-61.72-19.67-94.49-17.89-17,.92-13.2-11.7-15.45-20.23-2.52-9.58,4.42-10.45,11.71-11.72,65.57-11.45,121.56,10.77,172.12,49.91C421.82,381,467.12,445.77,501.51,517.85c8.66,18.16,3.82,41.24,1,62C502.34,581.2,500.26,582.25,499.06,583.42Z" transform="translate(-150.15 -255.57)"/><path class="cls-3" d="M777.45,715.85c-8.28-14.21-5.79-30.78-9.93-46.09-8.73-32.34-24.36-60.5-42.25-88.32-14.09-21.93-32.14-29.85-57-26.06-6.11.93-12.54-.21-18.83-.4,60.32-14.37,113.36-1,158.82,41.53,5.44,5.08,5.4,11.35,3.8,17.52-8.73,33.65-18.56,67-32,99.07C779.53,714.18,778.31,714.94,777.45,715.85Z" transform="translate(-150.15 -255.57)"/><path class="cls-3" d="M434.29,555c-14.67.14-29.35.78-44,.22-8.37-.32-14.12,2.64-19.78,8.45-20.72,21.3-35.08,46.37-46.71,73.52-8.74,20.41-13.59,41.62-16.7,63.34-.69,4.83-4.16,7-6.23,10.48-11.84-20.4-16.7-43.37-23.95-65.43-3.14-9.53-4.52-19.65-8-29-3.88-10.49-.64-17.46,7.53-24a273,273,0,0,1,71.56-41,13.41,13.41,0,0,1,4.88-1.17C380.09,550.7,407.4,549.26,434.29,555Z" transform="translate(-150.15 -255.57)"/><path class="cls-4" d="M697.46,797.24c-4.94,2.3-8.58-.93-12.7-2.89-42.54-20.27-72.58-51.67-89.65-96.13-10.07-26.24-23-51.41-34.66-77-2.17-4.75-4.62-8.85,1.73-12.81s8.15.92,10.64,4.51q61,88.17,121.8,176.44C696.18,791.61,698.91,793.64,697.46,797.24Z" transform="translate(-150.15 -255.57)"/><path class="cls-4" d="M380.34,797.58q33.06-48.26,66.15-96.5,29.29-42.55,58.9-84.93c2.83-4,4.66-11.09,12.27-7.11s3.45,9.39,1.32,14.06c-16.17,35.58-30.76,72-49.35,106.32C450.74,764.23,418.56,785,382.82,800Z" transform="translate(-150.15 -255.57)"/><path class="cls-5" d="M552.25,557.08c0,7.57-.19,15.14.06,22.7.26,7.74-3.75,12-10.81,13.08-7.73,1.22-12.74-3.75-13.38-10.38-1.73-17.94-2.49-36,.46-54,1.21-7.32,6.5-9.28,13.12-8.6,6.34.65,10.09,4.45,10.37,10.67.4,8.81.1,17.65.1,26.49Z" transform="translate(-150.15 -255.57)"/><path class="cls-3" d="M428.39,479.56c-4-.06-5.28-2.25-4.71-5.93C426.83,474.35,428.34,476.38,428.39,479.56Z" transform="translate(-150.15 -255.57)"/><path class="cls-3" d="M303.1,717.62c4.88,1.21,3.75,4.87,3.36,8.23A10.44,10.44,0,0,1,303.1,717.62Z" transform="translate(-150.15 -255.57)"/><path class="cls-3" d="M432.34,484.05c-3.21.16-4-1.82-4-4.5A5.29,5.29,0,0,1,432.34,484.05Z" transform="translate(-150.15 -255.57)"/><path class="cls-3" d="M647.88,484.53l-3.51,2.3Z" transform="translate(-150.15 -255.57)"/></g></svg>