<svg fill="none" height="64" viewBox="0 0 64 64" width="64" xmlns="http://www.w3.org/2000/svg" xmlns:xlink="http://www.w3.org/1999/xlink"><linearGradient id="a" gradientUnits="userSpaceOnUse" x1="1" x2="62.75" y1="63" y2="1.25"><stop offset="0" stop-color="#ff9419"/><stop offset=".43" stop-color="#ff021d"/><stop offset=".99" stop-color="#e600ff"/></linearGradient><path d="m22.14 0h36.86c2.76 0 5 2.24 5 5v36.86c0 2.65-1.055 5.195-2.93 7.07l-12.14 12.14c-1.875 1.875-4.42 2.93-7.07 2.93h-36.86c-2.76 0-5-2.24-5-5v-36.86c0-2.65 1.055-5.195 2.93-7.07l12.14-12.14c1.875-1.875 4.42-2.93 7.07-2.93z" fill="url(#a)"/><path d="m52 12h-46v46h46z" fill="#000"/><g fill="#fff"><path d="m11.92 21.49c.065-.12.1-.26.1-.42v-5.07h1.635v5.19c0 .43-.09.815-.275 1.145s-.45.585-.785.77c-.34.185-.725.275-1.16.275h-1.435v-1.505h1.22c.16 0 .3-.035.42-.1s.215-.16.28-.285z"/><path d="m10 51h16v3h-16z"/><path d="m16.595 20.37h3.475v-1.38h-3.475v-1.565h3.835v-1.425h-5.425v7.38h5.53v-1.42h-3.94z"/><path d="m23.32 17.465h-2.19v-1.465h6v1.465h-2.18v5.915h-1.63z"/><g clip-rule="evenodd" fill-rule="evenodd"><path d="m14.935 29.295c-.125-.065-.26-.12-.4-.16.105-.03.21-.07.305-.12.27-.14.48-.335.635-.59s.23-.545.23-.87c0-.375-.1-.71-.305-1.005s-.49-.525-.86-.69-.79-.25-1.26-.25h-3.28v7.38h3.345c.495 0 .94-.085 1.325-.26.39-.175.69-.415.905-.725s.32-.66.32-1.06c0-.365-.085-.69-.255-.98s-.405-.51-.705-.67zm-3.35-2.445h1.45c.2 0 .38.035.53.11.155.07.275.175.36.31s.13.29.13.47-.045.35-.13.49-.205.245-.36.32-.33.115-.53.115h-1.45zm2.5 4.47c-.095.14-.225.25-.395.325s-.365.115-.59.115h-1.515v-1.895h1.515c.22 0 .41.04.585.12.17.08.305.195.4.34s.14.315.14.505-.045.35-.14.49z"/><path d="m22.46 29.18c-.225.355-.54.635-.95.83l-.005-.005c-.08.035-.16.07-.245.1l1.685 2.885h-1.865l-1.495-2.69h-1.065v2.69h-1.635v-7.38h3.23c.535 0 1.005.095 1.41.29s.72.465.94.82.33.75.33 1.22-.11.885-.335 1.24zm-2.465-2.24h-1.47v2.045h1.47c.23 0 .425-.04.595-.125.17-.08.3-.2.39-.355s.135-.34.135-.545-.045-.385-.135-.54-.22-.27-.39-.355-.365-.125-.595-.125z"/><path d="m25.74 25.615-2.635 7.38h1.66l.52-1.63h2.735l.56 1.63h1.63l-2.7-7.38zm-.085 4.515.85-2.605.1-.475.1.475.905 2.605z"/></g><path d="m30.95 25.615h1.685v7.38h-1.685z"/><path d="m38.785 30.605-3.175-4.99h-1.59v7.38h1.49v-4.995l3.16 4.995h1.61v-7.38h-1.495z"/><path d="m46.065 29.01c.285.205.51.46.67.77h-.005c.16.31.24.645.24 1.01 0 .445-.12.845-.355 1.2s-.565.63-.99.83-.915.3-1.46.3-1.03-.1-1.45-.295c-.425-.195-.755-.47-.995-.82-.24-.355-.365-.76-.37-1.22h1.635c0 .19.055.36.155.505s.24.255.425.335c.18.08.395.12.62.12s.425-.035.59-.105.295-.17.39-.3.14-.28.14-.445c0-.2-.065-.375-.19-.51s-.295-.23-.515-.285l-1.33-.275c-.345-.075-.65-.205-.915-.395-.26-.19-.465-.43-.61-.715s-.215-.605-.215-.96c0-.44.11-.83.335-1.175.22-.345.535-.61.935-.805s.85-.29 1.37-.29.98.095 1.38.28c.405.185.72.445.945.775s.345.71.355 1.14h-1.635c0-.16-.045-.3-.13-.425s-.205-.22-.36-.29-.34-.105-.54-.105-.375.035-.53.1c-.15.065-.27.155-.355.275s-.125.255-.125.415c0 .175.06.32.175.44s.275.2.47.245l1.255.26c.37.07.7.21.99.415z"/></g></svg>